/* XPM */
static char *GTK+tobac2_xpm[] = {
/* width height num_colors chars_per_pixel */
"    48    48        8            1",
/* colors */
"` c #0b090b",
". c #a78a0c",
"# c #e5d15c",
"a c #efeeee",
"b c #9f9c96",
"c c #50524f",
"d c #6b6b65",
"e c #d2b82a",
/* pixels */
"````````````bdccccdb````````````````````````````",
"`````````bcdb#aaaa#bddb`````````````````````````",
"```````bcbaaaaaaaaaaaabcb```````````````````````",
"``````ddaaaaaaaaaaaaaaaadd``````````````````````",
"`````cbaaaaaaaaaaaaaaaaaa#c`````````````````````",
"```dcbaaaaaaaaaaaaaaaaaaaabc````````````````````",
"``ddb#dcddbaaaaaaaaaaaaaaaa#d```````````````````",
"`dbd#c`````caaaaaaaaaaaaaaaadbbbbbbbbbbbbbbb````",
"`#cab```````caaaaaaaaaaaaaaaacaaaaaaaaaaaaab````",
"dbbab````````caaaaaaaaaaabccbbbaaaaaaaaaaaab````",
"bcaac`cbc`````baaabdccbbc````#caaaaaaaaaaaab````",
"ddaac`bad``````ccc`````cbb```bdaaaaaaaaaaaab````",
"bbaa#baad```````````````aab``dbbaaabaaaaaaab````",
"c#aaaaaa````````````````bab``d#caaacaaaaaaab````",
"caaaaaad````````````````da#c`baccccccccaaaab`.``",
"caaaaaac````````````````bab`daacbbbcaaaaaaab..``",
"caaaaaac```````````````caac`#aac###daaaaaaa...``",
"caaaabc```````````````caa#`daaacaaadaaaaaa.e#.``",
"c#a#`ddddbc`cddb#d```caaadcaaa#ddddcaaaa#.###.``",
"bba#caaaaaccaaaaaac```baadbaaabbaaacaaae.####.``",
"`daab#aaabcaaaaaaab`ddcaadaaaadaaaadaa.e#####.``",
"`caaadbaadbaaaaaaabcadcaabaaaacaaaad#.e######.``",
"`bbaa#dcbcaaaaaaaad#bdaaaaaaabbaaaad.########.``",
"``caaaaddbaaaaaaabbad#aaaaaaacaaaae.#########.``",
"``bdaaaad#aaaaaabdbdbaaaaaaadbaaa.e##########.``",
"```d#aa#caaaaaadcccbaaaaaaa#daa#.############.``",
"```bcbab#aaaaaab##aaaaaaaabcaae.#############.``",
"```bac#aaaaaaaaaaaaaaaaaa#caa.e##############.``",
"```baaddaaaaaaaaaaaaaaaadda#.e#########.#####.``",
"```baaabcbaaaaaaaaaaaabcbae.#########e..#####.``",
"```baaacabcdb#aaaa#bdcbaa.e#########.ea.#####.``",
"```baaacaaaabccccccbdddd.e#########.#aa.#####.``",
"```baaacaaaaaaacaaaaaae.###ee####e.daaa.#####.``",
"```baaacaaaaaaacaaaaae.##eeee###.eacaaa.#####.``",
"```baaacaaaaaaaccccd.e##eeee##e.#aacaaa.#####.``",
"```baaacaaaaaaaaaa#.e#eeeee##e.aaaacaaa.#####.``",
"```baaacddddddddd..##eeeee##.eaaaaacaaa.#####.``",
"```baaaaaaaaaaaa.e##eeee##e.#aaaaaadaaa.#####.``",
"```baaaaaaaaaa#.e#eeeee##.eaaaaaaaabaaa.#####.``",
"```baaaaaaaaae.##eeeee#e................#####.``",
"```baaaaaaaa..##eeee#########################.``",
"```baaaaaaa.e#eeeeeeeeeeeeeeeeeeeeee#########.``",
"```bbbbbb..e#eeee.eeeee.eeeee.eeeee.eeee#.###.``",
"````````..##eeeee.eeeee.eeeee.eeeee.eeeee.###.``",
"``````c.e########e#####e#####e#####e#####e###.``",
"`````d........................................``",
"````````````````````````````````````````````````",
"````````````````````````````````````````````````"
};
